# xmcd
#
# Track frame offsets: 
#        150
#        8785
#        17766
#        30564
#        46951
#        57922
#        68637
#        80727
#        90172
#        102366
#        111490
#        122139
#        135373
#        145111
#        157017
#        168541
#        181324
#        193018
#        212124
#        222357
#        232813
#        240795
#        254465
#        266504
#        276848
#        305879
#        316656
#        328950
#
# Disc length: 4513 seconds
#
# Revision: 2
# Processed by: cddbd v1.5.2PL0 Copyright (c) Steve Scherf et al.
# Submitted via: ExactAudioCopyFreeDBPlugin 1.0
#
DISCID=8b119f1c
DTITLE=Various Artist - Mod:  The Early Years [Real Gone Music]
DYEAR=2014
DGENRE=Rhythm and Blues
TTITLE0=Chris Kenner - I Like it Like That, Part 1
TTITLE1=The Triumphs - Burnt Biscuits
TTITLE2=Muddy Waters - I Got My Mojo Working
TTITLE3=The Olympics - Hully Gully
TTITLE4=Bobby Freeman - The Mess Around
TTITLE5=Barbara George - I Know (You Don't Love Me No More)
TTITLE6=Little Willie John - Fever
TTITLE7=The Shirelles - Mama Said
TTITLE8=Bobby "Blue" Bland - I Pity the Fool
TTITLE9=Ed Townsend - Cherrigale
TTITLE10=Gene Chandler - Duke of Earl
TTITLE11=The Supremes - Buttered Popcorn
TTITLE12=The Isley Brothers - Respectable
TTITLE13=The Mar-Keys - Last Night
TTITLE14=Popcorn and The Mohawks - Shimmy Gulley
TTITLE15=Prince Conley - I'm Going Home
TTITLE16=The Drifters - Sweets for My Sweet
TTITLE17=The Phil Upchurch Combo - You Can't Sit Down, Parts 1 and 2
TTITLE18=Owen Gray - Cutest Little Woman
TTITLE19=The Impressions - Gypsy Woman
TTITLE20=Marty Lewis - Satisfied with My Lovin'
TTITLE21=Ike and Tina Turner - It's Gonna Work Out Fine
TTITLE22=Little Walter - My Babe
TTITLE23=The Temptations - Oh, Mother of Mine
TTITLE24=Ray Charles - What'd I Say
TTITLE25=The Pentagons - I Wonder
TTITLE26=Howlin' Wolf - Spoonful
TTITLE27=James Brown - I'll Go Crazy
EXTD=
EXTT0=
EXTT1=
EXTT2=
EXTT3=
EXTT4=
EXTT5=
EXTT6=
EXTT7=
EXTT8=
EXTT9=
EXTT10=
EXTT11=
EXTT12=
EXTT13=
EXTT14=
EXTT15=
EXTT16=
EXTT17=
EXTT18=
EXTT19=
EXTT20=
EXTT21=
EXTT22=
EXTT23=
EXTT24=
EXTT25=
EXTT26=
EXTT27=
PLAYORDER=
